<svg xmlns="http://www.w3.org/2000/svg" viewBox="0 0 16 16" width="16" height="16">
  <!-- Speech bubble -->
  <path d="M1 1h11c.55 0 1 .45 1 1v6.5c0 .55-.45 1-1 1H6C5 10.5 4.5 11 4 12C3.5 11 3 10.5 2 10.5H1c-.55 0-1-.45-1-1V2c0-.55.45-1 1-1z" fill="#4070d0"/>
  <!-- Text lines inside bubble -->
  <rect x="2" y="3" width="6" height="1" fill="#00eeff" opacity=".7"/>
  <rect x="2" y="5" width="8" height="1" fill="#ff66ff" opacity=".6"/>
  <rect x="2" y="7" width="5" height="1" fill="#55ffaa" opacity=".6"/>
  <!-- Mini clipboard body -->
  <rect x="9" y="9" width="6" height="6.5" rx=".8" fill="#00eeff"/>
  <!-- Mini clipboard clip -->
  <rect x="10.5" y="8" width="3" height="2" rx=".5" fill="#6090e0"/>
  <!-- Mini clipboard clip inner -->
  <rect x="11" y="8.3" width="2" height="1.4" rx=".3" fill="#0c1030"/>
  <!-- Mini clipboard lines -->
  <rect x="10" y="11.5" width="4" height=".8" rx=".2" fill="#ff66ff" opacity=".7"/>
  <rect x="10" y="13" width="3" height=".8" rx=".2" fill="#55ffaa" opacity=".7"/>
</svg>
